<svg xmlns="http://www.w3.org/2000/svg" width="32" height="32" viewBox="0 0 32 32"><g transform="translate(-1278.973 164.648)"><path fill="#2b4255" style="line-height:normal;text-indent:0;text-align:start;text-decoration-line:none;text-decoration-style:solid;text-decoration-color:#000;text-transform:none;block-progression:tb;isolation:auto;mix-blend-mode:normal" d="m 1290.4941,-163.64844 c -2.4947,0 -4.5214,2.01473 -4.5214,4.5 l 0,2.86524 0,0.5 1,0 0,-0.5 0,-2.86524 c 0,-1.94553 1.5604,-3.5 3.5214,-3.5 1.9612,0 3.5215,1.55447 3.5215,3.5 l 0,2.86524 0,0.5 1,0 0,-0.5 0,-2.86524 c 0,-2.48527 -2.0266,-4.5 -4.5215,-4.5 z" color="#000" font-family="sans-serif" font-weight="400" overflow="visible"/><path fill="#f8b84e" style="line-height:normal;text-indent:0;text-align:start;text-decoration-line:none;text-decoration-style:solid;text-decoration-color:#000;text-transform:none;block-progression:tb;isolation:auto;mix-blend-mode:normal" d="m 1284.4727,-156.64844 c -0.8224,0 -1.5,0.67765 -1.5,1.5 l 0,5 0,3.14453 0,7.60743 0,4.24804 c 0,0.82235 0.6776,1.5 1.5,1.5 l 16,0 1,0 a 0.50005,0.50005 0 1 0 0,-1 l -1,0 -16,0 c -0.2857,0 -0.5,-0.21435 -0.5,-0.5 l 0,-4.24804 0,-7.60743 0,-3.14453 0,-5 c 0,-0.28565 0.2143,-0.5 0.5,-0.5 l 16,0 c 0.2856,0 0.5,0.21435 0.5,0.5 l 0,7.91406 a 0.50005,0.50005 0 1 0 1,0 l 0,-7.91406 c 0,-0.82235 -0.6777,-1.5 -1.5,-1.5 l -16,0 z" color="#000" font-family="sans-serif" font-weight="400" overflow="visible"/><path fill="#2b4255" style="line-height:normal;text-indent:0;text-align:start;text-decoration-line:none;text-decoration-style:solid;text-decoration-color:#000;text-transform:none;block-progression:tb;isolation:auto;mix-blend-mode:normal" d="M1288.4727-154.14844c-.8225 0-1.5.6775-1.5 1.5 0 .82251.6775 1.5 1.5 1.5.8225 0 1.5-.67749 1.5-1.5 0-.8225-.6775-1.5-1.5-1.5zm0 1c.282 0 .5.21794.5.5 0 .28207-.218.5-.5.5-.2821 0-.5-.21793-.5-.5 0-.28206.2179-.5.5-.5zM1296.4727-154.14844c-.8225 0-1.5.6775-1.5 1.5 0 .82251.6775 1.5 1.5 1.5.8225 0 1.5-.67749 1.5-1.5 0-.8225-.6775-1.5-1.5-1.5zm0 1c.282 0 .5.21794.5.5 0 .28207-.218.5-.5.5-.2821 0-.5-.21793-.5-.5 0-.28206.2179-.5.5-.5z" color="#000" font-family="sans-serif" font-weight="400" overflow="visible"/><path fill="#2b4255" style="line-height:normal;text-indent:0;text-align:start;text-decoration-line:none;text-decoration-style:solid;text-decoration-color:#000;text-transform:none;block-progression:tb;isolation:auto;mix-blend-mode:normal" d="m 1292.4941,-162.64844 c -2.4947,0 -4.5214,2.01473 -4.5214,4.5 l 0,4.5 0,0.5 1,0 0,-0.5 0,-4.5 c 0,-1.94553 1.5604,-3.5 3.5214,-3.5 1.9612,0 3.5215,1.55447 3.5215,3.5 l 0,4.5 0,0.5 1,0 0,-0.5 0,-4.5 c 0,-2.48527 -2.0266,-4.5 -4.5215,-4.5 z" color="#000" font-family="sans-serif" font-weight="400" overflow="visible"/><path fill="#f8b84e" style="line-height:normal;text-indent:0;text-align:start;text-decoration-line:none;text-decoration-style:solid;text-decoration-color:#000;text-transform:none;block-progression:tb;isolation:auto;mix-blend-mode:normal" d="m 1281.4727,-156.64844 c -0.8224,0 -1.5,0.67765 -1.5,1.5 l 0,0.0117 a 0.50005,0.50005 0 0 0 0,0.002 c 0,0.65294 0.4309,1.22298 1.0351,1.50977 0.6078,0.28854 1.3219,0.28854 1.9297,0 0.6042,-0.28679 1.0303,-0.85683 1.0352,-1.50977 a 0.50005,0.50005 0 0 0 0,-0.002 l 0,-0.0117 c 0,-0.28565 0.2143,-0.5 0.5,-0.5 a 0.50005,0.50005 0 0 0 0,-1 l -3,0 z m 0,1 1.7089,0 c -0.069,0.17132 -0.2089,0.30542 -0.2089,0.5 l 0,0.008 c 0,0.22295 -0.1465,0.46017 -0.4649,0.61132 -0.3204,0.15209 -0.7499,0.15209 -1.0703,0 -0.3184,-0.15115 -0.4632,-0.38837 -0.4648,-0.61132 l 0,-0.008 c 0,-0.28565 0.2143,-0.5 0.5,-0.5 z" color="#000" font-family="sans-serif" font-weight="400" overflow="visible"/><path fill="#f8b84e" style="line-height:normal;text-indent:0;text-align:start;text-decoration-line:none;text-decoration-style:solid;text-decoration-color:#000;text-transform:none;block-progression:tb;isolation:auto;mix-blend-mode:normal" d="m 1281.4727,-156.64844 c -0.8224,0 -1.5,0.67765 -1.5,1.5 l 0,5 0,3.96875 0,7.54883 0,3.48242 c 0,0.82235 0.6776,1.5 1.5,1.5 l 3,0 a 0.50005,0.50005 0 0 0 0,-1 c -0.2857,0 -0.5,-0.21435 -0.5,-0.5 l 0,-4.32812 0,-7.35938 0,-3.3125 0,-5 c 0,-0.28565 0.2143,-0.5 0.5,-0.5 a 0.50005,0.50005 0 0 0 0,-1 l -3,0 z m 0,1 1.7089,0 c -0.069,0.17132 -0.2089,0.30542 -0.2089,0.5 l 0,5 0,3.3125 0,7.35938 0,4.32812 c 0,0.19428 0.1403,0.3289 0.2089,0.5 l -1.7089,0 c -0.2857,0 -0.5,-0.21435 -0.5,-0.5 l 0,-3.48242 0,-7.54883 0,-3.96875 0,-5 c 0,-0.28565 0.2143,-0.5 0.5,-0.5 z" color="#000" font-family="sans-serif" font-weight="400" overflow="visible"/><path fill="#25b39e" style="line-height:normal;text-indent:0;text-align:start;text-decoration-line:none;text-decoration-style:solid;text-decoration-color:#000;text-transform:none;block-progression:tb;isolation:auto;mix-blend-mode:normal" d="m 1288.4727,-147.64844 a 0.50005,0.50005 0 0 0 -0.5,0.5 l 0,13 a 0.50005,0.50005 0 0 0 0.5,0.5 l 21,0 a 0.50005,0.50005 0 0 0 0.5,-0.5 l 0,-13 a 0.50005,0.50005 0 0 0 -0.5,-0.5 l -21,0 z m 0.5,1 20,0 0,12 -20,0 0,-12 z" color="#000" font-family="sans-serif" font-weight="400" overflow="visible"/><path fill="#2b4255" style="line-height:normal;text-indent:0;text-align:start;text-decoration-line:none;text-decoration-style:solid;text-decoration-color:#000;text-transform:none;block-progression:tb;isolation:auto;mix-blend-mode:normal" d="m 1294.9297,-143.64648 0,0.5 0,2 c 0,2.48526 2.0267,4.49804 4.5215,4.49804 2.4948,0 4.5215,-2.01278 4.5215,-4.49804 l 0,-2 0,-0.5 -1,0 0,0.5 0,2 c 0,1.94553 -1.5604,3.49804 -3.5215,3.49804 -1.9611,0 -3.5215,-1.55251 -3.5215,-3.49804 l 0,-2 0,-0.5 -1,0 z" color="#000" font-family="sans-serif" font-weight="400" overflow="visible"/><path fill="#2b4255" style="line-height:normal;text-indent:0;text-align:start;text-decoration-line:none;text-decoration-style:solid;text-decoration-color:#000;text-transform:none;block-progression:tb;isolation:auto;mix-blend-mode:normal" d="M1295.4727-145.64844c-.8225 0-1.5.6775-1.5 1.5 0 .82251.6775 1.5 1.5 1.5.8225 0 1.5-.67749 1.5-1.5 0-.8225-.6775-1.5-1.5-1.5zm0 1c.282 0 .5.21794.5.5 0 .28207-.218.5-.5.5-.2821 0-.5-.21793-.5-.5 0-.28206.2179-.5.5-.5zM1303.4727-145.64844c-.8225 0-1.5.6775-1.5 1.5 0 .82251.6775 1.5 1.5 1.5.8225 0 1.5-.67749 1.5-1.5 0-.8225-.6775-1.5-1.5-1.5zm0 1c.282 0 .5.21794.5.5 0 .28207-.218.5-.5.5-.2821 0-.5-.21793-.5-.5 0-.28206.2179-.5.5-.5z" color="#000" font-family="sans-serif" font-weight="400" overflow="visible"/></g></svg>